<svg width="14" height="14" viewBox="0 0 14 14" fill="none" xmlns="http://www.w3.org/2000/svg">
<g clip-path="url(#clip0_1_1033)">
<path d="M7.55946 10.8889C7.55946 11.2778 7.63168 11.65 7.75391 12H3.11502C2.82033 12 2.53772 11.8829 2.32934 11.6746C2.12097 11.4662 2.00391 11.1836 2.00391 10.8889V3.11111C2.00391 2.5 2.50391 2 3.11502 2H10.8928C11.1875 2 11.4701 2.11706 11.6785 2.32544C11.8868 2.53381 12.0039 2.81643 12.0039 3.11111V7.75C11.6539 7.62778 11.2817 7.55556 10.8928 7.55556V3.11111H3.11502V10.8889H7.55946ZM8.09279 7.16111L6.56502 9.12778L5.47613 7.81667L3.94835 9.77778H7.75391C7.97613 9.15556 8.37613 8.61667 8.89279 8.22778L8.09279 7.16111ZM11.4483 10.3333V8.66667H10.3372V10.3333H8.67057V11.4444H10.3372V13.1111H11.4483V11.4444H13.115V10.3333H11.4483Z" fill="#5E6DFA"/>
</g>
<defs>
<clipPath id="clip0_1_1033">
<rect width="13.3333" height="13.3333" fill="white" transform="translate(0.335938 0.333008)"/>
</clipPath>
</defs>
</svg>
