<svg width="14" height="14" viewBox="0 0 14 14" fill="none" xmlns="http://www.w3.org/2000/svg">
<path d="M4.83336 8.73343C6.38896 8.73343 7.65003 7.47237 7.65003 5.91676C7.65003 4.36116 6.38896 3.1001 4.83336 3.1001C3.27776 3.1001 2.01669 4.36116 2.01669 5.91676C2.01669 7.47237 3.27776 8.73343 4.83336 8.73343Z" stroke="#81859C" stroke-width="0.8" stroke-linecap="round" stroke-linejoin="round"/>
<path d="M8.48419 3.20301C8.73318 3.13548 8.98996 3.10088 9.24794 3.1001C9.99497 3.1001 10.7114 3.39685 11.2396 3.92508C11.7679 4.45331 12.0646 5.16974 12.0646 5.91676C12.0646 6.66379 11.7679 7.38022 11.2396 7.90845C10.7114 8.43668 9.99497 8.73343 9.24794 8.73343" stroke="#81859C" stroke-width="0.8" stroke-linecap="round" stroke-linejoin="round"/>
<path d="M0.93335 10.7593C1.37315 10.1334 1.95712 9.62263 2.63592 9.27C3.31472 8.91737 4.06842 8.73328 4.83335 8.73328C5.59828 8.73328 6.35198 8.91737 7.03078 9.27C7.70958 9.62263 8.29355 10.1334 8.73335 10.7593" stroke="#81859C" stroke-width="0.8" stroke-linecap="round" stroke-linejoin="round"/>
<path d="M9.24792 8.73346C10.0129 8.73299 10.7668 8.91685 11.4456 9.26949C12.1245 9.62212 12.7084 10.1331 13.1479 10.7593" stroke="#81859C" stroke-width="0.8" stroke-linecap="round" stroke-linejoin="round"/>
</svg>
